<svg xmlns="http://www.w3.org/2000/svg" xmlns:xlink="http://www.w3.org/1999/xlink" width="1920" zoomAndPan="magnify" viewBox="0 0 1440 809.999993" height="1080" preserveAspectRatio="xMidYMid meet" version="1.0"><defs><filter x="0%" y="0%" width="100%" height="100%" id="1c84884ba1"><feColorMatrix values="0 0 0 0 1 0 0 0 0 1 0 0 0 0 1 0 0 0 1 0" color-interpolation-filters="sRGB"/></filter><g/><clipPath id="86b9090e8a"><path d="M 115 308 L 296 308 L 296 502 L 115 502 Z M 115 308 " clip-rule="nonzero"/></clipPath><clipPath id="77948be064"><path d="M 81.003906 362.914062 L 253.578125 284.03125 L 328.097656 447.054688 L 155.523438 525.941406 Z M 81.003906 362.914062 " clip-rule="nonzero"/></clipPath><clipPath id="70722f5adb"><path d="M 81.003906 362.914062 L 253.578125 284.03125 L 328.097656 447.054688 L 155.523438 525.941406 Z M 81.003906 362.914062 " clip-rule="nonzero"/></clipPath><clipPath id="37f7439331"><path d="M 65.539062 51.074219 L 1440 51.074219 L 1440 759.074219 L 65.539062 759.074219 Z M 65.539062 51.074219 " clip-rule="nonzero"/></clipPath><clipPath id="e0133d0af1"><path d="M 0.539062 0.0742188 L 1375 0.0742188 L 1375 708.074219 L 0.539062 708.074219 Z M 0.539062 0.0742188 " clip-rule="nonzero"/></clipPath><clipPath id="abb9f4e529"><path d="M 0.546875 0.0742188 L 1375 0.0742188 L 1375 707.324219 L 0.546875 707.324219 Z M 0.546875 0.0742188 " clip-rule="nonzero"/></clipPath><linearGradient x1="-89.830765" gradientTransform="matrix(0.749912, 0, 0, 0.749542, 262.820449, 262.254232)" y1="853.697774" x2="1298.367297" gradientUnits="userSpaceOnUse" y2="-534.500324" id="bc320c922f"><stop stop-opacity="1" stop-color="rgb(11.759949%, 74.119568%, 64.709473%)" offset="0"/><stop stop-opacity="1" stop-color="rgb(11.759949%, 74.119568%, 64.709473%)" offset="0.25"/><stop stop-opacity="1" stop-color="rgb(11.759949%, 74.119568%, 64.709473%)" offset="0.3125"/><stop stop-opacity="1" stop-color="rgb(11.759949%, 74.119568%, 64.709473%)" offset="0.328125"/><stop stop-opacity="1" stop-color="rgb(12.0224%, 74.006653%, 64.486694%)" offset="0.332031"/><stop stop-opacity="1" stop-color="rgb(12.286377%, 73.895264%, 64.265442%)" offset="0.335938"/><stop stop-opacity="1" stop-color="rgb(13.842773%, 73.236084%, 62.954712%)" offset="0.339844"/><stop stop-opacity="1" stop-color="rgb(15.400696%, 72.576904%, 61.643982%)" offset="0.34375"/><stop stop-opacity="1" stop-color="rgb(16.957092%, 71.917725%, 60.331726%)" offset="0.347656"/><stop stop-opacity="1" stop-color="rgb(18.515015%, 71.258545%, 59.020996%)" offset="0.351563"/><stop stop-opacity="1" stop-color="rgb(20.071411%, 70.599365%, 57.710266%)" offset="0.355469"/><stop stop-opacity="1" stop-color="rgb(21.629333%, 69.940186%, 56.399536%)" offset="0.359375"/><stop stop-opacity="1" stop-color="rgb(23.18573%, 69.27948%, 55.088806%)" offset="0.363281"/><stop stop-opacity="1" stop-color="rgb(24.743652%, 68.6203%, 53.778076%)" offset="0.367188"/><stop stop-opacity="1" stop-color="rgb(26.300049%, 67.961121%, 52.467346%)" offset="0.371094"/><stop stop-opacity="1" stop-color="rgb(27.857971%, 67.301941%, 51.156616%)" offset="0.375"/><stop stop-opacity="1" stop-color="rgb(29.414368%, 66.642761%, 49.845886%)" offset="0.378906"/><stop stop-opacity="1" stop-color="rgb(30.97229%, 65.983582%, 48.535156%)" offset="0.382813"/><stop stop-opacity="1" stop-color="rgb(32.530212%, 65.324402%, 47.224426%)" offset="0.386719"/><stop stop-opacity="1" stop-color="rgb(34.088135%, 64.665222%, 45.913696%)" offset="0.390625"/><stop stop-opacity="1" stop-color="rgb(35.644531%, 64.004517%, 44.60144%)" offset="0.394531"/><stop stop-opacity="1" stop-color="rgb(37.202454%, 63.345337%, 43.29071%)" offset="0.398438"/><stop stop-opacity="1" stop-color="rgb(38.75885%, 62.686157%, 41.97998%)" offset="0.402344"/><stop stop-opacity="1" stop-color="rgb(40.316772%, 62.026978%, 40.66925%)" offset="0.40625"/><stop stop-opacity="1" stop-color="rgb(41.873169%, 61.367798%, 39.358521%)" offset="0.410156"/><stop stop-opacity="1" stop-color="rgb(43.431091%, 60.708618%, 38.047791%)" offset="0.414062"/><stop stop-opacity="1" stop-color="rgb(44.987488%, 60.049438%, 36.737061%)" offset="0.417969"/><stop stop-opacity="1" stop-color="rgb(46.54541%, 59.390259%, 35.426331%)" offset="0.421875"/><stop stop-opacity="1" stop-color="rgb(48.101807%, 58.729553%, 34.115601%)" offset="0.425781"/><stop stop-opacity="1" stop-color="rgb(49.659729%, 58.070374%, 32.804871%)" offset="0.429688"/><stop stop-opacity="1" stop-color="rgb(51.216125%, 57.411194%, 31.494141%)" offset="0.433594"/><stop stop-opacity="1" stop-color="rgb(52.774048%, 56.752014%, 30.183411%)" offset="0.4375"/><stop stop-opacity="1" stop-color="rgb(54.330444%, 56.092834%, 28.871155%)" offset="0.441406"/><stop stop-opacity="1" stop-color="rgb(55.888367%, 55.433655%, 27.560425%)" offset="0.445313"/><stop stop-opacity="1" stop-color="rgb(57.444763%, 54.772949%, 26.249695%)" offset="0.449219"/><stop stop-opacity="1" stop-color="rgb(59.002686%, 54.11377%, 24.938965%)" offset="0.453125"/><stop stop-opacity="1" stop-color="rgb(60.559082%, 53.45459%, 23.628235%)" offset="0.457031"/><stop stop-opacity="1" stop-color="rgb(62.117004%, 52.79541%, 22.317505%)" offset="0.460938"/><stop stop-opacity="1" stop-color="rgb(63.673401%, 52.13623%, 21.006775%)" offset="0.464844"/><stop stop-opacity="1" stop-color="rgb(65.231323%, 51.477051%, 19.696045%)" offset="0.46875"/><stop stop-opacity="1" stop-color="rgb(66.78772%, 50.817871%, 18.385315%)" offset="0.472656"/><stop stop-opacity="1" stop-color="rgb(68.345642%, 50.158691%, 17.074585%)" offset="0.476562"/><stop stop-opacity="1" stop-color="rgb(69.902039%, 49.497986%, 15.763855%)" offset="0.480469"/><stop stop-opacity="1" stop-color="rgb(71.459961%, 48.838806%, 14.453125%)" offset="0.484375"/><stop stop-opacity="1" stop-color="rgb(73.016357%, 48.179626%, 13.140869%)" offset="0.488281"/><stop stop-opacity="1" stop-color="rgb(74.57428%, 47.520447%, 11.830139%)" offset="0.492188"/><stop stop-opacity="1" stop-color="rgb(76.130676%, 46.861267%, 10.519409%)" offset="0.496094"/><stop stop-opacity="1" stop-color="rgb(77.688599%, 46.202087%, 9.208679%)" offset="0.5"/><stop stop-opacity="1" stop-color="rgb(79.244995%, 45.542908%, 7.897949%)" offset="0.503906"/><stop stop-opacity="1" stop-color="rgb(80.802917%, 44.883728%, 6.587219%)" offset="0.507813"/><stop stop-opacity="1" stop-color="rgb(82.359314%, 44.223022%, 5.276489%)" offset="0.511719"/><stop stop-opacity="1" stop-color="rgb(83.917236%, 43.563843%, 3.965759%)" offset="0.515625"/><stop stop-opacity="1" stop-color="rgb(85.473633%, 42.904663%, 2.655029%)" offset="0.519531"/><stop stop-opacity="1" stop-color="rgb(87.031555%, 42.245483%, 1.344299%)" offset="0.523438"/><stop stop-opacity="1" stop-color="rgb(87.942505%, 42.362976%, 0.942993%)" offset="0.527344"/><stop stop-opacity="1" stop-color="rgb(88.853455%, 42.481995%, 0.541687%)" offset="0.53125"/><stop stop-opacity="1" stop-color="rgb(89.083862%, 43.418884%, 1.097107%)" offset="0.535156"/><stop stop-opacity="1" stop-color="rgb(89.31427%, 44.3573%, 1.652527%)" offset="0.539062"/><stop stop-opacity="1" stop-color="rgb(89.544678%, 45.294189%, 2.207947%)" offset="0.542969"/><stop stop-opacity="1" stop-color="rgb(89.775085%, 46.231079%, 2.764893%)" offset="0.546875"/><stop stop-opacity="1" stop-color="rgb(90.005493%, 47.167969%, 3.320312%)" offset="0.550781"/><stop stop-opacity="1" stop-color="rgb(90.235901%, 48.106384%, 3.877258%)" offset="0.554688"/><stop stop-opacity="1" stop-color="rgb(90.466309%, 49.043274%, 4.432678%)" offset="0.558594"/><stop stop-opacity="1" stop-color="rgb(90.696716%, 49.980164%, 4.989624%)" offset="0.5625"/><stop stop-opacity="1" stop-color="rgb(90.927124%, 50.917053%, 5.545044%)" offset="0.566406"/><stop stop-opacity="1" stop-color="rgb(91.157532%, 51.855469%, 6.10199%)" offset="0.570313"/><stop stop-opacity="1" stop-color="rgb(91.386414%, 52.792358%, 6.65741%)" offset="0.574219"/><stop stop-opacity="1" stop-color="rgb(91.616821%, 53.730774%, 7.214355%)" offset="0.578125"/><stop stop-opacity="1" stop-color="rgb(91.847229%, 54.667664%, 7.769775%)" offset="0.582031"/><stop stop-opacity="1" stop-color="rgb(92.077637%, 55.604553%, 8.325195%)" offset="0.585938"/><stop stop-opacity="1" stop-color="rgb(92.308044%, 56.541443%, 8.880615%)" offset="0.589844"/><stop stop-opacity="1" stop-color="rgb(92.538452%, 57.479858%, 9.437561%)" offset="0.59375"/><stop stop-opacity="1" stop-color="rgb(92.76886%, 58.416748%, 9.992981%)" offset="0.597656"/><stop stop-opacity="1" stop-color="rgb(92.999268%, 59.353638%, 10.549927%)" offset="0.601562"/><stop stop-opacity="1" stop-color="rgb(93.229675%, 60.290527%, 11.105347%)" offset="0.605469"/><stop stop-opacity="1" stop-color="rgb(93.460083%, 61.228943%, 11.662292%)" offset="0.609375"/><stop stop-opacity="1" stop-color="rgb(93.690491%, 62.165833%, 12.217712%)" offset="0.613281"/><stop stop-opacity="1" stop-color="rgb(93.920898%, 63.102722%, 12.774658%)" offset="0.617188"/><stop stop-opacity="1" stop-color="rgb(94.151306%, 64.039612%, 13.330078%)" offset="0.621094"/><stop stop-opacity="1" stop-color="rgb(94.381714%, 64.978027%, 13.887024%)" offset="0.625"/><stop stop-opacity="1" stop-color="rgb(94.612122%, 65.914917%, 14.442444%)" offset="0.628906"/><stop stop-opacity="1" stop-color="rgb(94.842529%, 66.851807%, 14.99939%)" offset="0.632813"/><stop stop-opacity="1" stop-color="rgb(95.072937%, 67.788696%, 15.55481%)" offset="0.636719"/><stop stop-opacity="1" stop-color="rgb(95.303345%, 68.727112%, 16.110229%)" offset="0.640625"/><stop stop-opacity="1" stop-color="rgb(95.533752%, 69.664001%, 16.665649%)" offset="0.644531"/><stop stop-opacity="1" stop-color="rgb(95.76416%, 70.600891%, 17.222595%)" offset="0.648438"/><stop stop-opacity="1" stop-color="rgb(95.993042%, 71.537781%, 17.778015%)" offset="0.652344"/><stop stop-opacity="1" stop-color="rgb(96.22345%, 72.476196%, 18.334961%)" offset="0.65625"/><stop stop-opacity="1" stop-color="rgb(96.453857%, 73.413086%, 18.890381%)" offset="0.660156"/><stop stop-opacity="1" stop-color="rgb(96.684265%, 74.351501%, 19.447327%)" offset="0.664062"/><stop stop-opacity="1" stop-color="rgb(96.914673%, 75.288391%, 20.002747%)" offset="0.667969"/><stop stop-opacity="1" stop-color="rgb(97.145081%, 76.225281%, 20.559692%)" offset="0.671875"/><stop stop-opacity="1" stop-color="rgb(97.375488%, 77.16217%, 21.115112%)" offset="0.675781"/><stop stop-opacity="1" stop-color="rgb(97.605896%, 78.100586%, 21.672058%)" offset="0.679688"/><stop stop-opacity="1" stop-color="rgb(97.836304%, 79.037476%, 22.227478%)" offset="0.683594"/><stop stop-opacity="1" stop-color="rgb(98.066711%, 79.974365%, 22.782898%)" offset="0.6875"/><stop stop-opacity="1" stop-color="rgb(98.297119%, 80.911255%, 23.338318%)" offset="0.691406"/><stop stop-opacity="1" stop-color="rgb(98.527527%, 81.84967%, 23.895264%)" offset="0.695312"/><stop stop-opacity="1" stop-color="rgb(98.757935%, 82.78656%, 24.450684%)" offset="0.699219"/><stop stop-opacity="1" stop-color="rgb(98.988342%, 83.72345%, 25.007629%)" offset="0.703125"/><stop stop-opacity="1" stop-color="rgb(99.21875%, 84.660339%, 25.563049%)" offset="0.707031"/><stop stop-opacity="1" stop-color="rgb(99.449158%, 85.598755%, 26.119995%)" offset="0.710938"/><stop stop-opacity="1" stop-color="rgb(99.679565%, 86.535645%, 26.675415%)" offset="0.714844"/><stop stop-opacity="1" stop-color="rgb(99.909973%, 87.472534%, 27.232361%)" offset="0.71875"/><stop stop-opacity="1" stop-color="rgb(99.954224%, 87.65564%, 27.340698%)" offset="0.75"/><stop stop-opacity="1" stop-color="rgb(100%, 87.838745%, 27.449036%)" offset="1"/></linearGradient><clipPath id="a438c7c297"><rect x="0" width="1375" y="0" height="709"/></clipPath><clipPath id="fa044a58b7"><path d="M 0.539062 0.0742188 L 1375 0.0742188 L 1375 708.074219 L 0.539062 708.074219 Z M 0.539062 0.0742188 " clip-rule="nonzero"/></clipPath><clipPath id="4b610cf837"><rect x="0" width="1375" y="0" height="709"/></clipPath><clipPath id="368029a23a"><rect x="0" width="1375" y="0" height="709"/></clipPath><mask id="41d0bfdbe9"><g filter="url(#1c84884ba1)"><g transform="matrix(1, 0, 0, 1, 0, 0.000000000000035527)"><g clip-path="url(#368029a23a)"><g clip-path="url(#fa044a58b7)"><g transform="matrix(1, 0, 0, 1, 0, 0.000000000000035527)"><g clip-path="url(#4b610cf837)"><g fill="#000000" fill-opacity="1"><g transform="translate(263.075068, 399.073034)"><g><path d="M 41.453125 0.921875 C 34.710938 0.921875 28.675781 -0.171875 23.34375 -2.359375 C 18.007812 -4.546875 13.742188 -7.78125 10.546875 -12.0625 C 7.359375 -16.351562 5.679688 -21.515625 5.515625 -27.546875 L 29.375 -27.546875 C 29.726562 -24.140625 30.910156 -21.535156 32.921875 -19.734375 C 34.929688 -17.941406 37.554688 -17.046875 40.796875 -17.046875 C 44.117188 -17.046875 46.738281 -17.8125 48.65625 -19.34375 C 50.582031 -20.875 51.546875 -22.992188 51.546875 -25.703125 C 51.546875 -27.984375 50.78125 -29.863281 49.25 -31.34375 C 47.71875 -32.832031 45.835938 -34.054688 43.609375 -35.015625 C 41.378906 -35.984375 38.210938 -37.078125 34.109375 -38.296875 C 28.160156 -40.140625 23.304688 -41.976562 19.546875 -43.8125 C 15.785156 -45.644531 12.546875 -48.351562 9.828125 -51.9375 C 7.117188 -55.53125 5.765625 -60.210938 5.765625 -65.984375 C 5.765625 -74.546875 8.867188 -81.253906 15.078125 -86.109375 C 21.285156 -90.960938 29.378906 -93.390625 39.359375 -93.390625 C 49.492188 -93.390625 57.664062 -90.960938 63.875 -86.109375 C 70.082031 -81.253906 73.40625 -74.5 73.84375 -65.84375 L 49.578125 -65.84375 C 49.410156 -68.820312 48.316406 -71.160156 46.296875 -72.859375 C 44.285156 -74.566406 41.707031 -75.421875 38.5625 -75.421875 C 35.851562 -75.421875 33.664062 -74.695312 32 -73.25 C 30.34375 -71.8125 29.515625 -69.738281 29.515625 -67.03125 C 29.515625 -64.050781 30.910156 -61.726562 33.703125 -60.0625 C 36.503906 -58.40625 40.878906 -56.617188 46.828125 -54.703125 C 52.773438 -52.691406 57.601562 -50.765625 61.3125 -48.921875 C 65.03125 -47.085938 68.242188 -44.421875 70.953125 -40.921875 C 73.671875 -37.421875 75.03125 -32.921875 75.03125 -27.421875 C 75.03125 -22.171875 73.695312 -17.398438 71.03125 -13.109375 C 68.363281 -8.828125 64.492188 -5.414062 59.421875 -2.875 C 54.347656 -0.34375 48.359375 0.921875 41.453125 0.921875 Z M 41.453125 0.921875 "/></g></g></g><g fill="#000000" fill-opacity="1"><g transform="translate(343.73617, 399.073034)"><g><path d="M 48.921875 -19.015625 L 48.921875 0 L 37.515625 0 C 29.378906 0 23.035156 -1.988281 18.484375 -5.96875 C 13.941406 -9.945312 11.671875 -16.441406 11.671875 -25.453125 L 11.671875 -54.5625 L 2.75 -54.5625 L 2.75 -73.1875 L 11.671875 -73.1875 L 11.671875 -91.03125 L 34.109375 -91.03125 L 34.109375 -73.1875 L 48.796875 -73.1875 L 48.796875 -54.5625 L 34.109375 -54.5625 L 34.109375 -25.1875 C 34.109375 -23 34.628906 -21.421875 35.671875 -20.453125 C 36.722656 -19.492188 38.472656 -19.015625 40.921875 -19.015625 Z M 48.921875 -19.015625 "/></g></g></g><g fill="#000000" fill-opacity="1"><g transform="translate(396.985606, 399.073034)"><g><path d="M 30.5625 -61 C 33.1875 -65.019531 36.460938 -68.1875 40.390625 -70.5 C 44.328125 -72.820312 48.703125 -73.984375 53.515625 -73.984375 L 53.515625 -50.234375 L 47.359375 -50.234375 C 41.753906 -50.234375 37.550781 -49.03125 34.75 -46.625 C 31.957031 -44.226562 30.5625 -40.007812 30.5625 -33.96875 L 30.5625 0 L 8.125 0 L 8.125 -73.1875 L 30.5625 -73.1875 Z M 30.5625 -61 "/></g></g></g><g fill="#000000" fill-opacity="1"><g transform="translate(453.120488, 399.073034)"><g><path d="M 3.671875 -36.734375 C 3.671875 -44.253906 5.09375 -50.851562 7.9375 -56.53125 C 10.78125 -62.21875 14.648438 -66.59375 19.546875 -69.65625 C 24.441406 -72.71875 29.90625 -74.25 35.9375 -74.25 C 41.101562 -74.25 45.628906 -73.195312 49.515625 -71.09375 C 53.410156 -69 56.40625 -66.242188 58.5 -62.828125 L 58.5 -73.1875 L 80.9375 -73.1875 L 80.9375 0 L 58.5 0 L 58.5 -10.359375 C 56.3125 -6.953125 53.269531 -4.195312 49.375 -2.09375 C 45.488281 0 40.96875 1.046875 35.8125 1.046875 C 29.863281 1.046875 24.441406 -0.503906 19.546875 -3.609375 C 14.648438 -6.710938 10.78125 -11.128906 7.9375 -16.859375 C 5.09375 -22.585938 3.671875 -29.210938 3.671875 -36.734375 Z M 58.5 -36.59375 C 58.5 -42.1875 56.945312 -46.601562 53.84375 -49.84375 C 50.738281 -53.082031 46.957031 -54.703125 42.5 -54.703125 C 38.039062 -54.703125 34.257812 -53.101562 31.15625 -49.90625 C 28.050781 -46.71875 26.5 -42.328125 26.5 -36.734375 C 26.5 -31.128906 28.050781 -26.6875 31.15625 -23.40625 C 34.257812 -20.132812 38.039062 -18.5 42.5 -18.5 C 46.957031 -18.5 50.738281 -20.113281 53.84375 -23.34375 C 56.945312 -26.582031 58.5 -31 58.5 -36.59375 Z M 58.5 -36.59375 "/></g></g></g><g fill="#000000" fill-opacity="1"><g transform="translate(542.175579, 399.073034)"><g><path d="M 82.90625 -73.1875 L 36.984375 34.765625 L 12.859375 34.765625 L 29.640625 -2.5 L -0.125 -73.1875 L 24.921875 -73.1875 L 41.84375 -27.421875 L 58.640625 -73.1875 Z M 82.90625 -73.1875 "/></g></g></g><g fill="#000000" fill-opacity="1"><g transform="translate(625.066345, 399.073034)"><g/></g></g><g fill="#000000" fill-opacity="1"><g transform="translate(652.871482, 399.073034)"><g><path d="M 4.328125 -46.171875 C 4.328125 -55.265625 6.296875 -63.375 10.234375 -70.5 C 14.171875 -77.632812 19.65625 -83.1875 26.6875 -87.15625 C 33.726562 -91.132812 41.707031 -93.125 50.625 -93.125 C 61.5625 -93.125 70.921875 -90.238281 78.703125 -84.46875 C 86.484375 -78.695312 91.6875 -70.828125 94.3125 -60.859375 L 69.65625 -60.859375 C 67.8125 -64.710938 65.207031 -67.644531 61.84375 -69.65625 C 58.476562 -71.664062 54.65625 -72.671875 50.375 -72.671875 C 43.457031 -72.671875 37.859375 -70.265625 33.578125 -65.453125 C 29.296875 -60.640625 27.15625 -54.210938 27.15625 -46.171875 C 27.15625 -38.128906 29.296875 -31.703125 33.578125 -26.890625 C 37.859375 -22.078125 43.457031 -19.671875 50.375 -19.671875 C 54.65625 -19.671875 58.476562 -20.675781 61.84375 -22.6875 C 65.207031 -24.695312 67.8125 -27.628906 69.65625 -31.484375 L 94.3125 -31.484375 C 91.6875 -21.515625 86.484375 -13.664062 78.703125 -7.9375 C 70.921875 -2.207031 61.5625 0.65625 50.625 0.65625 C 41.707031 0.65625 33.726562 -1.332031 26.6875 -5.3125 C 19.65625 -9.289062 14.171875 -14.820312 10.234375 -21.90625 C 6.296875 -28.988281 4.328125 -37.078125 4.328125 -46.171875 Z M 4.328125 -46.171875 "/></g></g></g><g fill="#000000" fill-opacity="1"><g transform="translate(752.812547, 399.073034)"><g><path d="M 41.453125 1.046875 C 34.273438 1.046875 27.820312 -0.476562 22.09375 -3.53125 C 16.375 -6.59375 11.875 -10.96875 8.59375 -16.65625 C 5.3125 -22.34375 3.671875 -28.988281 3.671875 -36.59375 C 3.671875 -44.113281 5.332031 -50.738281 8.65625 -56.46875 C 11.976562 -62.195312 16.523438 -66.59375 22.296875 -69.65625 C 28.066406 -72.71875 34.539062 -74.25 41.71875 -74.25 C 48.882812 -74.25 55.351562 -72.71875 61.125 -69.65625 C 66.894531 -66.59375 71.441406 -62.195312 74.765625 -56.46875 C 78.085938 -50.738281 79.75 -44.113281 79.75 -36.59375 C 79.75 -29.070312 78.066406 -22.445312 74.703125 -16.71875 C 71.335938 -10.988281 66.742188 -6.59375 60.921875 -3.53125 C 55.109375 -0.476562 48.617188 1.046875 41.453125 1.046875 Z M 41.453125 -18.359375 C 45.734375 -18.359375 49.378906 -19.929688 52.390625 -23.078125 C 55.410156 -26.234375 56.921875 -30.738281 56.921875 -36.59375 C 56.921875 -42.457031 55.457031 -46.960938 52.53125 -50.109375 C 49.601562 -53.253906 46 -54.828125 41.71875 -54.828125 C 37.34375 -54.828125 33.710938 -53.273438 30.828125 -50.171875 C 27.941406 -47.066406 26.5 -42.539062 26.5 -36.59375 C 26.5 -30.738281 27.914062 -26.234375 30.75 -23.078125 C 33.59375 -19.929688 37.160156 -18.359375 41.453125 -18.359375 Z M 41.453125 -18.359375 "/></g></g></g><g fill="#000000" fill-opacity="1"><g transform="translate(836.359083, 399.073034)"><g><path d="M 52.734375 -73.984375 C 61.304688 -73.984375 68.148438 -71.207031 73.265625 -65.65625 C 78.378906 -60.101562 80.9375 -52.472656 80.9375 -42.765625 L 80.9375 0 L 58.640625 0 L 58.640625 -39.75 C 58.640625 -44.644531 57.367188 -48.445312 54.828125 -51.15625 C 52.296875 -53.863281 48.882812 -55.21875 44.59375 -55.21875 C 40.3125 -55.21875 36.898438 -53.863281 34.359375 -51.15625 C 31.828125 -48.445312 30.5625 -44.644531 30.5625 -39.75 L 30.5625 0 L 8.125 0 L 8.125 -73.1875 L 30.5625 -73.1875 L 30.5625 -63.484375 C 32.832031 -66.722656 35.890625 -69.28125 39.734375 -71.15625 C 43.585938 -73.039062 47.921875 -73.984375 52.734375 -73.984375 Z M 52.734375 -73.984375 "/></g></g></g><g fill="#000000" fill-opacity="1"><g transform="translate(924.758416, 399.073034)"><g><path d="M 52.734375 -73.984375 C 61.304688 -73.984375 68.148438 -71.207031 73.265625 -65.65625 C 78.378906 -60.101562 80.9375 -52.472656 80.9375 -42.765625 L 80.9375 0 L 58.640625 0 L 58.640625 -39.75 C 58.640625 -44.644531 57.367188 -48.445312 54.828125 -51.15625 C 52.296875 -53.863281 48.882812 -55.21875 44.59375 -55.21875 C 40.3125 -55.21875 36.898438 -53.863281 34.359375 -51.15625 C 31.828125 -48.445312 30.5625 -44.644531 30.5625 -39.75 L 30.5625 0 L 8.125 0 L 8.125 -73.1875 L 30.5625 -73.1875 L 30.5625 -63.484375 C 32.832031 -66.722656 35.890625 -69.28125 39.734375 -71.15625 C 43.585938 -73.039062 47.921875 -73.984375 52.734375 -73.984375 Z M 52.734375 -73.984375 "/></g></g></g><g fill="#000000" fill-opacity="1"><g transform="translate(1013.157704, 399.073034)"><g><path d="M 77.125 -37.78125 C 77.125 -35.675781 76.992188 -33.488281 76.734375 -31.21875 L 25.96875 -31.21875 C 26.320312 -26.664062 27.785156 -23.1875 30.359375 -20.78125 C 32.941406 -18.382812 36.113281 -17.1875 39.875 -17.1875 C 45.46875 -17.1875 49.359375 -19.546875 51.546875 -24.265625 L 75.421875 -24.265625 C 74.203125 -19.453125 71.992188 -15.125 68.796875 -11.28125 C 65.609375 -7.4375 61.609375 -4.421875 56.796875 -2.234375 C 51.984375 -0.046875 46.601562 1.046875 40.65625 1.046875 C 33.488281 1.046875 27.109375 -0.476562 21.515625 -3.53125 C 15.921875 -6.59375 11.546875 -10.96875 8.390625 -16.65625 C 5.242188 -22.34375 3.671875 -28.988281 3.671875 -36.59375 C 3.671875 -44.207031 5.222656 -50.851562 8.328125 -56.53125 C 11.429688 -62.21875 15.78125 -66.59375 21.375 -69.65625 C 26.976562 -72.71875 33.40625 -74.25 40.65625 -74.25 C 47.738281 -74.25 54.035156 -72.757812 59.546875 -69.78125 C 65.054688 -66.8125 69.363281 -62.570312 72.46875 -57.0625 C 75.570312 -51.550781 77.125 -45.125 77.125 -37.78125 Z M 54.171875 -43.6875 C 54.171875 -47.53125 52.859375 -50.585938 50.234375 -52.859375 C 47.609375 -55.128906 44.332031 -56.265625 40.40625 -56.265625 C 36.644531 -56.265625 33.472656 -55.171875 30.890625 -52.984375 C 28.304688 -50.804688 26.710938 -47.707031 26.109375 -43.6875 Z M 54.171875 -43.6875 "/></g></g></g><g fill="#000000" fill-opacity="1"><g transform="translate(1093.949966, 399.073034)"><g><path d="M 3.671875 -36.59375 C 3.671875 -44.207031 5.222656 -50.851562 8.328125 -56.53125 C 11.429688 -62.21875 15.757812 -66.59375 21.3125 -69.65625 C 26.863281 -72.71875 33.226562 -74.25 40.40625 -74.25 C 49.582031 -74.25 57.253906 -71.84375 63.421875 -67.03125 C 69.585938 -62.21875 73.632812 -55.441406 75.5625 -46.703125 L 51.6875 -46.703125 C 49.675781 -52.296875 45.78125 -55.09375 40 -55.09375 C 35.894531 -55.09375 32.617188 -53.492188 30.171875 -50.296875 C 27.722656 -47.109375 26.5 -42.539062 26.5 -36.59375 C 26.5 -30.644531 27.722656 -26.078125 30.171875 -22.890625 C 32.617188 -19.703125 35.894531 -18.109375 40 -18.109375 C 45.78125 -18.109375 49.675781 -20.90625 51.6875 -26.5 L 75.5625 -26.5 C 73.632812 -17.925781 69.566406 -11.191406 63.359375 -6.296875 C 57.148438 -1.398438 49.5 1.046875 40.40625 1.046875 C 33.226562 1.046875 26.863281 -0.476562 21.3125 -3.53125 C 15.757812 -6.59375 11.429688 -10.96875 8.328125 -16.65625 C 5.222656 -22.34375 3.671875 -28.988281 3.671875 -36.59375 Z M 3.671875 -36.59375 "/></g></g></g><g fill="#000000" fill-opacity="1"><g transform="translate(1173.299541, 399.073034)"><g><path d="M 48.921875 -19.015625 L 48.921875 0 L 37.515625 0 C 29.378906 0 23.035156 -1.988281 18.484375 -5.96875 C 13.941406 -9.945312 11.671875 -16.441406 11.671875 -25.453125 L 11.671875 -54.5625 L 2.75 -54.5625 L 2.75 -73.1875 L 11.671875 -73.1875 L 11.671875 -91.03125 L 34.109375 -91.03125 L 34.109375 -73.1875 L 48.796875 -73.1875 L 48.796875 -54.5625 L 34.109375 -54.5625 L 34.109375 -25.1875 C 34.109375 -23 34.628906 -21.421875 35.671875 -20.453125 C 36.722656 -19.492188 38.472656 -19.015625 40.921875 -19.015625 Z M 48.921875 -19.015625 "/></g></g></g></g></g></g></g></g></g></mask><clipPath id="e3e38dee49"><path d="M 0.546875 0.0742188 L 1375 0.0742188 L 1375 707.324219 L 0.546875 707.324219 Z M 0.546875 0.0742188 " clip-rule="nonzero"/></clipPath><clipPath id="3d395ccfeb"><rect x="0" width="1375" y="0" height="709"/></clipPath><clipPath id="1b12da64ce"><rect x="0" width="1375" y="0" height="709"/></clipPath></defs><rect x="-144" width="1728" fill="#ffffff" y="-80.999999" height="971.999992" fill-opacity="1"/><rect x="-144" width="1728" fill="#fff3c2" y="-80.999999" height="971.999992" fill-opacity="1"/><g clip-path="url(#86b9090e8a)"><g clip-path="url(#77948be064)"><g clip-path="url(#70722f5adb)"><path fill="#609966" d="M 197.796875 309.71875 C 197.449219 309.886719 197.09375 310.066406 196.75 310.261719 C 183.578125 319.265625 182.625 337.976562 187.582031 351.832031 C 191.449219 364.691406 203.886719 377.804688 218.414062 374.445312 C 220.507812 373.929688 222.433594 372.847656 224.082031 371.476562 C 237.628906 358.800781 236.125 336.582031 226.640625 321.945312 C 221.335938 312.117188 208.65625 304.585938 197.796875 309.71875 Z M 137.472656 338.078125 C 128.679688 342.363281 125.875 354.546875 128.339844 363.667969 C 133.046875 381.816406 150.226562 399.191406 170.152344 396.507812 C 171.953125 396.113281 173.664062 395.375 175.203125 394.363281 C 186.128906 386.988281 185.078125 371.4375 179.6875 360.960938 C 172.878906 347.003906 158.082031 334.03125 141.605469 336.765625 C 140.101562 337.023438 138.726562 337.46875 137.472656 338.082031 Z M 258.640625 340.359375 C 243.679688 348.308594 240.148438 368.476562 245.199219 383.492188 C 247.886719 394.761719 259.714844 406.066406 271.886719 401.5 C 288.238281 393.78125 291.421875 371.082031 284.976562 355.75 C 281.449219 345.273438 270.007812 335.828125 258.640625 340.359375 Z M 125.570312 405.300781 C 119 408.238281 114.355469 415.097656 115.257812 422.726562 C 117.6875 443.128906 139.445312 460.429688 160 455.554688 C 168.484375 453.304688 172.632812 444.105469 171.261719 435.945312 C 168.289062 418.511719 151.546875 404.34375 133.957031 403.855469 C 131.015625 403.613281 128.140625 404.15625 125.570312 405.304688 Z M 209.109375 405.691406 C 196.292969 411.582031 186.238281 424.046875 182.363281 437.535156 C 178.554688 452.933594 177.210938 469.433594 180.851562 485.003906 C 182.050781 496.863281 195.363281 505.050781 206.363281 500.109375 C 219.726562 494.445312 226.925781 480.199219 239.742188 473.527344 C 250.097656 466.742188 262.710938 467.976562 274.453125 467.191406 C 284.640625 466.941406 295.777344 460.160156 295.9375 449 C 295.085938 438.089844 285.492188 430.421875 277.523438 424.03125 C 262.855469 414.445312 247.265625 404.453125 229.464844 402.417969 C 222.285156 401.507812 215.367188 402.8125 209.109375 405.691406 Z M 209.109375 405.691406 " fill-opacity="1" fill-rule="nonzero"/></g></g></g><g clip-path="url(#37f7439331)"><g transform="matrix(1, 0, 0, 1, 65, 51)"><g clip-path="url(#1b12da64ce)"><g clip-path="url(#e0133d0af1)"><g mask="url(#41d0bfdbe9)"><g transform="matrix(1, 0, 0, 1, 0, 0.000000000000035527)"><g clip-path="url(#3d395ccfeb)"><g clip-path="url(#e3e38dee49)"><path fill="url(#bc320c922f)" d="M 0.546875 0.0742188 L 0.546875 707.324219 L 1375 707.324219 L 1375 0.0742188 Z M 0.546875 0.0742188 " fill-rule="nonzero"/></g></g></g></g></g></g></g></g></svg>